<svg width="256px" height="256px" viewBox="-3.36 -3.36 30.72 30.72" xmlns="http://www.w3.org/2000/svg" fill="#000000" stroke="#000000" stroke-width="0.00024000000000000003">
<g id="SVGRepo_bgCarrier" stroke-width="0">
<path transform="translate(-3.36, -3.36), scale(1.92)" fill="#c0c0c0" d="M9.166.33a2.25 2.25 0 00-2.332 0l-5.25 3.182A2.25 2.25 0 00.5 5.436v5.128a2.25 2.25 0 001.084 1.924l5.25 3.182a2.25 2.25 0 002.332 0l5.25-3.182a2.25 2.25 0 001.084-1.924V5.436a2.25 2.25 0 00-1.084-1.924L9.166.33z" strokewidth="0"/>
</g>
<g id="SVGRepo_tracerCarrier" stroke-linecap="round" stroke-linejoin="round"/>
<g id="SVGRepo_iconCarrier"> <defs> <style>.cls-1{fill:#ffff00;}.cls-2{fill:#ff0000;}.cls-3{fill:#ffffff;}.cls-4{fill:#00ff00;}.cls-5{fill:#000084;}</style> </defs> <g id="Icons"> <rect class="cls-1" height="9" rx="2" width="9" x="1" y="1"/> <rect class="cls-2" height="9" rx="2" width="9" x="14" y="1"/> <rect class="cls-3" height="9" rx="2" width="9" x="1" y="14"/> <rect class="cls-4" height="9" rx="2" width="9" x="14" y="14"/> <path class="cls-2" d="M10,16a2.006,2.006,0,0,1-2,2H3a2,2,0,0,1,0-4H8A2.006,2.006,0,0,1,10,16Z"/> <path class="cls-1" d="M23,16a2.006,2.006,0,0,1-2,2H16a2,2,0,0,1,0-4h5A2.006,2.006,0,0,1,23,16Z"/> </g> <g data-name="Layer 4" id="Layer_4"> <path class="cls-5" d="M8,0H3A3,3,0,0,0,0,3V8a3,3,0,0,0,3,3H8a3,3,0,0,0,3-3V3A3,3,0,0,0,8,0ZM9,8A1,1,0,0,1,8,9H3A1,1,0,0,1,2,8V3A1,1,0,0,1,3,2H8A1,1,0,0,1,9,3Z"/> <path class="cls-5" d="M21,0H16a3,3,0,0,0-3,3V8a3,3,0,0,0,3,3h5a3,3,0,0,0,3-3V3A3,3,0,0,0,21,0Zm1,8a1,1,0,0,1-1,1H16a1,1,0,0,1-1-1V3a1,1,0,0,1,1-1h5a1,1,0,0,1,1,1Z"/> <path class="cls-5" d="M8,13H3a3,3,0,0,0-3,3v5a3,3,0,0,0,3,3H8a3,3,0,0,0,3-3V16A3,3,0,0,0,8,13Zm1,8a1,1,0,0,1-1,1H3a1,1,0,0,1-1-1V16a1,1,0,0,1,1-1H8a1,1,0,0,1,1,1Z"/> <path class="cls-5" d="M21,13H16a3,3,0,0,0-3,3v5a3,3,0,0,0,3,3h5a3,3,0,0,0,3-3V16A3,3,0,0,0,21,13Zm1,8a1,1,0,0,1-1,1H16a1,1,0,0,1-1-1V16a1,1,0,0,1,1-1h5a1,1,0,0,1,1,1Z"/> </g> </g>
</svg>