<svg height="256px" width="256px" version="1.1" id="Layer_1" xmlns="http://www.w3.org/2000/svg" xmlns:xlink="http://www.w3.org/1999/xlink" viewBox="-30.72 -30.72 573.44 573.44" xml:space="preserve" fill="#000000">
<g id="SVGRepo_bgCarrier" stroke-width="0">
<path transform="translate(-30.72, -30.72), scale(35.84)" fill="#c0c0c0" d="M9.166.33a2.25 2.25 0 00-2.332 0l-5.25 3.182A2.25 2.25 0 00.5 5.436v5.128a2.25 2.25 0 001.084 1.924l5.25 3.182a2.25 2.25 0 002.332 0l5.25-3.182a2.25 2.25 0 001.084-1.924V5.436a2.25 2.25 0 00-1.084-1.924L9.166.33z" strokewidth="0"/>
</g>
<g id="SVGRepo_tracerCarrier" stroke-linecap="round" stroke-linejoin="round"/>
<g id="SVGRepo_iconCarrier"> <path style="fill:#ff0080;" d="M437.227,299.495c3.115-14.196,4.688-28.735,4.688-43.496s-1.571-29.3-4.688-43.496l5.463-3.154 l35.455-20.47l-20.471-35.453l-20.47-35.453l-20.47-35.455l-35.453,20.47l-5.547,3.203c-10.519-9.608-22.038-18.087-34.469-25.363 c-12.998-7.608-26.634-13.682-40.784-18.181v-6.309V15.398h-40.939h-40.939h-40.939v40.939v6.309 c-14.151,4.499-27.783,10.573-40.782,18.181c-12.432,7.276-23.951,15.756-34.469,25.363l-5.547-3.203l-35.456-20.47l-20.47,35.455 l-20.47,35.453L0,188.879l35.455,20.47l5.464,3.155c-3.117,14.195-4.688,28.735-4.688,43.495c0,14.76,1.571,29.3,4.688,43.495 l-5.464,3.155L0,323.118l20.47,35.455l20.47,35.453l20.47,35.453l35.455-20.47l5.547-3.203 c10.519,9.608,22.039,18.087,34.471,25.363c12.998,7.608,26.634,13.682,40.782,18.181v6.309v40.939h40.939h40.939h40.939V455.66 v-6.309c14.15-4.499,27.784-10.575,40.784-18.181c12.43-7.276,23.951-15.756,34.469-25.363l5.547,3.203l35.453,20.47l20.47-35.455 l20.47-35.453l20.471-35.455l-35.455-20.47L437.227,299.495z"/> <path style="fill:#000080;" d="M437.227,299.495c3.115-14.196,4.688-28.735,4.688-43.496s-1.571-29.3-4.688-43.496l5.463-3.154 l35.455-20.47l-20.471-35.453l-20.47-35.453l-20.47-35.455l-35.453,20.47l-5.547,3.203c-10.519-9.608-22.038-18.087-34.469-25.363 c-12.998-7.608-26.634-13.682-40.784-18.181v-6.309V15.398h-40.939h-20.47v481.204h20.47h40.939v-40.939v-6.309 c14.15-4.499,27.784-10.575,40.784-18.181c12.43-7.276,23.951-15.756,34.469-25.363l5.547,3.203l35.453,20.47l20.47-35.455 l20.47-35.453l20.471-35.455l-35.455-20.47L437.227,299.495z"/> <path style="fill:#FFFFFF;" d="M239.072,140.006c-63.959,0-115.994,52.035-115.994,115.994s52.035,115.994,115.994,115.994 S355.067,319.959,355.067,256S303.032,140.006,239.072,140.006z"/> <path style="fill:#00d900;" d="M396.006,264.614c-63.959,0-115.994,52.035-115.994,115.994c0,63.961,52.035,115.994,115.994,115.994 S512,444.568,512,380.608C512,316.649,459.965,264.614,396.006,264.614z"/> <path style="fill:#00d900;" d="M396.006,496.602c63.959,0,115.994-52.034,115.994-115.994c0-63.959-52.035-115.994-115.994-115.994"/> <polygon style="fill:#FFFFFF;" points="386.453,431.39 344.686,389.623 373.634,360.675 386.453,373.493 426.564,333.382 455.512,362.33 "/> </g>
</svg>