<svg width="256px" height="256px" viewBox="-102.4 -102.4 1228.80 1228.80" class="icon" version="1.1" xmlns="http://www.w3.org/2000/svg" fill="#000000" stroke="#000000" stroke-width="15.36" transform="matrix(1, 0, 0, -1, 0, 0)rotate(0)">
<g id="SVGRepo_bgCarrier" stroke-width="0" transform="translate(0,0), scale(1)">
<path transform="translate(-102.4, -102.4), scale(76.8)" fill="#c0c0c0" d="M9.166.33a2.25 2.25 0 00-2.332 0l-5.25 3.182A2.25 2.25 0 00.5 5.436v5.128a2.25 2.25 0 001.084 1.924l5.25 3.182a2.25 2.25 0 002.332 0l5.25-3.182a2.25 2.25 0 001.084-1.924V5.436a2.25 2.25 0 00-1.084-1.924L9.166.33z" strokewidth="0"/>
</g>
<g id="SVGRepo_tracerCarrier" stroke-linecap="round" stroke-linejoin="round" stroke="#a0a3f8" stroke-width="32.768">
<path d="M810.666667 149.333333H213.333333c-23.466667 0-42.666667 19.2-42.666666 42.666667v128c0 23.466667 19.2 42.666667 42.666666 42.666667h597.333334c23.466667 0 42.666667-19.2 42.666666-42.666667V192c0-23.466667-19.2-42.666667-42.666666-42.666667zM810.666667 405.333333H213.333333c-23.466667 0-42.666667 19.2-42.666666 42.666667v128c0 23.466667 19.2 42.666667 42.666666 42.666667h597.333334c23.466667 0 42.666667-19.2 42.666666-42.666667v-128c0-23.466667-19.2-42.666667-42.666666-42.666667zM810.666667 661.333333H213.333333c-23.466667 0-42.666667 19.2-42.666666 42.666667v128c0 23.466667 19.2 42.666667 42.666666 42.666667h597.333334c23.466667 0 42.666667-19.2 42.666666-42.666667v-128c0-23.466667-19.2-42.666667-42.666666-42.666667z" fill="#d81b60"/>
<path d="M964.266667 812.8c2.133333-8.533333 2.133333-17.066667 2.133333-23.466667s0-17.066667-2.133333-23.466666l49.066666-36.266667c4.266667-4.266667 6.4-10.666667 4.266667-14.933333l-49.066667-83.2c-2.133333-4.266667-8.533333-6.4-14.933333-4.266667l-55.466667 25.6c-12.8-10.666667-27.733333-19.2-42.666666-25.6l-6.4-61.866667c0-6.4-6.4-10.666667-10.666667-10.666666h-96c-6.4 0-10.666667 4.266667-10.666667 10.666666l-6.4 61.866667c-14.933333 6.4-29.866667 14.933333-42.666666 25.6l-55.466667-25.6c-6.4-2.133333-12.8 0-14.933333 4.266667l-49.066667 83.2c-2.133333 4.266667-2.133333 12.8 4.266667 14.933333l49.066666 36.266667c-2.133333 8.533333-2.133333 17.066667-2.133333 23.466666s0 17.066667 2.133333 23.466667l-49.066666 36.266667c-4.266667 4.266667-6.4 10.666667-4.266667 14.933333l49.066667 83.2c2.133333 4.266667 8.533333 6.4 14.933333 4.266667l55.466667-25.6c12.8 10.666667 27.733333 19.2 42.666666 25.6l6.4 61.866666c0 6.4 6.4 10.666667 10.666667 10.666667h96c6.4 0 10.666667-4.266667 10.666667-10.666667l6.4-61.866666c14.933333-6.4 29.866667-14.933333 42.666666-25.6l55.466667 25.6c6.4 2.133333 12.8 0 14.933333-4.266667l49.066667-83.2c2.133333-4.266667 2.133333-12.8-4.266667-14.933333l-49.066666-36.266667zM789.333333 900.266667c-61.866667 0-110.933333-49.066667-110.933333-110.933334 0-61.866667 49.066667-110.933333 110.933333-110.933333 61.866667 0 110.933333 49.066667 110.933334 110.933333 0 61.866667-49.066667 110.933333-110.933334 110.933334z" fill="#0000a0"/>
<path d="M789.333333 661.333333c-70.4 0-128 57.6-128 128s57.6 128 128 128 128-57.6 128-128-57.6-128-128-128z m0 192c-36.266667 0-64-27.733333-64-64s27.733333-64 64-64 64 27.733333 64 64-27.733333 64-64 64z" fill="#c0c0c0"/>
</g>
<g id="SVGRepo_iconCarrier">
<path d="M810.666667 149.333333H213.333333c-23.466667 0-42.666667 19.2-42.666666 42.666667v128c0 23.466667 19.2 42.666667 42.666666 42.666667h597.333334c23.466667 0 42.666667-19.2 42.666666-42.666667V192c0-23.466667-19.2-42.666667-42.666666-42.666667zM810.666667 405.333333H213.333333c-23.466667 0-42.666667 19.2-42.666666 42.666667v128c0 23.466667 19.2 42.666667 42.666666 42.666667h597.333334c23.466667 0 42.666667-19.2 42.666666-42.666667v-128c0-23.466667-19.2-42.666667-42.666666-42.666667zM810.666667 661.333333H213.333333c-23.466667 0-42.666667 19.2-42.666666 42.666667v128c0 23.466667 19.2 42.666667 42.666666 42.666667h597.333334c23.466667 0 42.666667-19.2 42.666666-42.666667v-128c0-23.466667-19.2-42.666667-42.666666-42.666667z" fill="#d81b60"/>
<path d="M964.266667 812.8c2.133333-8.533333 2.133333-17.066667 2.133333-23.466667s0-17.066667-2.133333-23.466666l49.066666-36.266667c4.266667-4.266667 6.4-10.666667 4.266667-14.933333l-49.066667-83.2c-2.133333-4.266667-8.533333-6.4-14.933333-4.266667l-55.466667 25.6c-12.8-10.666667-27.733333-19.2-42.666666-25.6l-6.4-61.866667c0-6.4-6.4-10.666667-10.666667-10.666666h-96c-6.4 0-10.666667 4.266667-10.666667 10.666666l-6.4 61.866667c-14.933333 6.4-29.866667 14.933333-42.666666 25.6l-55.466667-25.6c-6.4-2.133333-12.8 0-14.933333 4.266667l-49.066667 83.2c-2.133333 4.266667-2.133333 12.8 4.266667 14.933333l49.066666 36.266667c-2.133333 8.533333-2.133333 17.066667-2.133333 23.466666s0 17.066667 2.133333 23.466667l-49.066666 36.266667c-4.266667 4.266667-6.4 10.666667-4.266667 14.933333l49.066667 83.2c2.133333 4.266667 8.533333 6.4 14.933333 4.266667l55.466667-25.6c12.8 10.666667 27.733333 19.2 42.666666 25.6l6.4 61.866666c0 6.4 6.4 10.666667 10.666667 10.666667h96c6.4 0 10.666667-4.266667 10.666667-10.666667l6.4-61.866666c14.933333-6.4 29.866667-14.933333 42.666666-25.6l55.466667 25.6c6.4 2.133333 12.8 0 14.933333-4.266667l49.066667-83.2c2.133333-4.266667 2.133333-12.8-4.266667-14.933333l-49.066666-36.266667zM789.333333 900.266667c-61.866667 0-110.933333-49.066667-110.933333-110.933334 0-61.866667 49.066667-110.933333 110.933333-110.933333 61.866667 0 110.933333 49.066667 110.933334 110.933333 0 61.866667-49.066667 110.933333-110.933334 110.933334z" fill="#0000a0"/>
<path d="M789.333333 661.333333c-70.4 0-128 57.6-128 128s57.6 128 128 128 128-57.6 128-128-57.6-128-128-128z m0 192c-36.266667 0-64-27.733333-64-64s27.733333-64 64-64 64 27.733333 64 64-27.733333 64-64 64z" fill="#c0c0c0"/>
</g>
</svg>