<!DOCTYPE svg PUBLIC "-//W3C//DTD SVG 1.1//EN" "http://www.w3.org/Graphics/SVG/1.1/DTD/svg11.dtd">
<!-- Uploaded to: SVG Repo, www.svgrepo.com, Transformed by: SVG Repo Mixer Tools -->
<svg version="1.1" id="Layer_1" xmlns="http://www.w3.org/2000/svg" xmlns:xlink="http://www.w3.org/1999/xlink" viewBox="-46.08 -46.08 604.16 604.16" xml:space="preserve" width="256px" height="256px" fill="#000040" transform="matrix(-1, 0, 0, 1, 0, 0)rotate(0)" stroke="#000040" stroke-width="0.00512">
<g id="SVGRepo_bgCarrier" stroke-width="0">
<path transform="translate(-46.08, -46.08), scale(37.76)" fill="#c0c0c0" d="M9.166.33a2.25 2.25 0 00-2.332 0l-5.25 3.182A2.25 2.25 0 00.5 5.436v5.128a2.25 2.25 0 001.084 1.924l5.25 3.182a2.25 2.25 0 002.332 0l5.25-3.182a2.25 2.25 0 001.084-1.924V5.436a2.25 2.25 0 00-1.084-1.924L9.166.33z" strokewidth="0"/>
</g>
<g id="SVGRepo_tracerCarrier" stroke-linecap="round" stroke-linejoin="round" stroke="#CCCCCC" stroke-width="90.112"> <rect y="62.4" style="fill:#d5ffd9;" width="512" height="387.2"/> <g> <rect x="104" y="370.2" style="fill:#ff8000;" width="304" height="10"/> <rect x="104" y="402.2" style="fill:#ff8000;" width="304" height="10"/> </g> <rect x="158.4" y="242.4" style="fill:#E81241;" width="32.8" height="88.8"/> <g> <rect x="104" y="279.2" style="fill:#000040;" width="32.8" height="52.8"/> <rect x="212.8" y="193.6" style="fill:#000040;" width="32.8" height="138.4"/> </g> <rect x="266.4" y="104" style="fill:#E81241;" width="32.8" height="227.2"/> <rect x="320.8" y="150.4" style="fill:#000040;" width="32.8" height="181.6"/> <rect x="375.2" y="223.2" style="fill:#E81241;" width="32.8" height="108.8"/> </g>
<g id="SVGRepo_iconCarrier"> <rect y="62.4" style="fill:#d5ffd9;" width="512" height="387.2"/> <g> <rect x="104" y="370.2" style="fill:#ff8000;" width="304" height="10"/> <rect x="104" y="402.2" style="fill:#ff8000;" width="304" height="10"/> </g> <rect x="158.4" y="242.4" style="fill:#E81241;" width="32.8" height="88.8"/> <g> <rect x="104" y="279.2" style="fill:#000040;" width="32.8" height="52.8"/> <rect x="212.8" y="193.6" style="fill:#000040;" width="32.8" height="138.4"/> </g> <rect x="266.4" y="104" style="fill:#E81241;" width="32.8" height="227.2"/> <rect x="320.8" y="150.4" style="fill:#000040;" width="32.8" height="181.6"/> <rect x="375.2" y="223.2" style="fill:#E81241;" width="32.8" height="108.8"/> </g>
</svg>