<svg version="1.1" xmlns="http://www.w3.org/2000/svg" xmlns:xlink="http://www.w3.org/1999/xlink" viewBox="0 0 500.00 500.00" xml:space="preserve" width="256px" height="256px" fill="#000000">
<g id="SVGRepo_bgCarrier" stroke-width="0" transform="translate(0,0), scale(1)">
<path transform="translate(0, 0), scale(31.25)" fill="#c0c0c0" d="M9.166.33a2.25 2.25 0 00-2.332 0l-5.25 3.182A2.25 2.25 0 00.5 5.436v5.128a2.25 2.25 0 001.084 1.924l5.25 3.182a2.25 2.25 0 002.332 0l5.25-3.182a2.25 2.25 0 001.084-1.924V5.436a2.25 2.25 0 00-1.084-1.924L9.166.33z" strokewidth="0"/>
</g>
<g id="SVGRepo_tracerCarrier" stroke-linecap="round" stroke-linejoin="round" stroke="#CCCCCC" stroke-width="17"> <style type="text/css"> .st0{fill:#FFFFFF;stroke:#FFFFFF;stroke-width:0.005;} .st1{fill:#8080ff;} .st2{fill:#F5FDFF;} .st3{fill:#000040;} .st4{fill:#000040;} .st5{fill:#ffaeae;} .st6{fill:#004080;} .st7{fill:#FFFFFF;} .st8{fill:#000040;} </style> <g id="border"> <rect x="46.363" y="100.127" class="st0" width="407.273" height="299.745"/> </g> <g id="object" xmlns:cc="http://creativecommons.org/ns#" xmlns:dc="http://purl.org/dc/elements/1.1/" xmlns:inkscape="http://www.inkscape.org/namespaces/inkscape" xmlns:rdf="http://www.w3.org/1999/02/22-rdf-syntax-ns#" xmlns:sodipodi="http://sodipodi.sourceforge.net/DTD/sodipodi-0.dtd" xmlns:svg="http://www.w3.org/2000/svg"> <g> <g> <rect x="46.363" y="100.127" class="st1" width="407.273" height="299.745"/> </g> <g> <rect x="156.437" y="148.704" class="st2" width="278.064" height="251.168"/> </g> <rect x="187.836" y="241.724" class="st3" width="219.53" height="4.761"/> <rect x="187.836" y="261.664" class="st3" width="219.53" height="4.761"/> <rect x="187.836" y="281.537" class="st3" width="219.53" height="4.761"/> <rect x="187.836" y="301.143" class="st3" width="219.53" height="4.761"/> <rect x="187.836" y="170.588" class="st4" width="219.53" height="16.631"/> <rect x="322.245" y="203.492" class="st3" width="84.886" height="4.761"/> <rect x="322.245" y="218.202" class="st3" width="84.886" height="4.761"/> <rect x="187.836" y="319.288" class="st3" width="219.53" height="4.761"/> <rect x="187.836" y="339.228" class="st3" width="219.53" height="4.761"/> <rect x="187.836" y="359.101" class="st3" width="219.53" height="4.761"/> <rect x="187.836" y="378.708" class="st3" width="219.53" height="4.761"/> <g> <rect x="50.983" y="105.886" class="st5" width="83.448" height="288.228"/> </g> <rect x="56.538" y="140.559" class="st6" width="71.475" height="4.761"/> <rect x="56.538" y="153.932" class="st6" width="71.475" height="4.761"/> <rect x="56.538" y="167.305" class="st6" width="71.475" height="4.761"/> <rect x="56.538" y="120.202" class="st7" width="71.475" height="11.745"/> <g> <rect x="156.437" y="100.127" class="st8" width="278.064" height="9.347"/> </g> </g> </g> </g>
<g id="SVGRepo_iconCarrier"> <style type="text/css"> .st0{fill:#FFFFFF;stroke:#FFFFFF;stroke-width:39.5;} .st1{fill:#8080ff;} .st2{fill:#F5FDFF;} .st3{fill:#000040;} .st4{fill:#000040;} .st5{fill:#ffaeae;} .st6{fill:#004080;} .st7{fill:#FFFFFF;} .st8{fill:#000040;} </style> <g id="border"> <rect x="46.363" y="100.127" class="st0" width="407.273" height="299.745"/> </g> <g id="object" xmlns:cc="http://creativecommons.org/ns#" xmlns:dc="http://purl.org/dc/elements/1.1/" xmlns:inkscape="http://www.inkscape.org/namespaces/inkscape" xmlns:rdf="http://www.w3.org/1999/02/22-rdf-syntax-ns#" xmlns:sodipodi="http://sodipodi.sourceforge.net/DTD/sodipodi-0.dtd" xmlns:svg="http://www.w3.org/2000/svg"> <g> <g> <rect x="46.363" y="100.127" class="st1" width="407.273" height="299.745"/> </g> <g> <rect x="156.437" y="148.704" class="st2" width="278.064" height="251.168"/> </g> <rect x="187.836" y="241.724" class="st3" width="219.53" height="4.761"/> <rect x="187.836" y="261.664" class="st3" width="219.53" height="4.761"/> <rect x="187.836" y="281.537" class="st3" width="219.53" height="4.761"/> <rect x="187.836" y="301.143" class="st3" width="219.53" height="4.761"/> <rect x="187.836" y="170.588" class="st4" width="219.53" height="16.631"/> <rect x="322.245" y="203.492" class="st3" width="84.886" height="4.761"/> <rect x="322.245" y="218.202" class="st3" width="84.886" height="4.761"/> <rect x="187.836" y="319.288" class="st3" width="219.53" height="4.761"/> <rect x="187.836" y="339.228" class="st3" width="219.53" height="4.761"/> <rect x="187.836" y="359.101" class="st3" width="219.53" height="4.761"/> <rect x="187.836" y="378.708" class="st3" width="219.53" height="4.761"/> <g> <rect x="50.983" y="105.886" class="st5" width="83.448" height="288.228"/> </g> <rect x="56.538" y="140.559" class="st6" width="71.475" height="4.761"/> <rect x="56.538" y="153.932" class="st6" width="71.475" height="4.761"/> <rect x="56.538" y="167.305" class="st6" width="71.475" height="4.761"/> <rect x="56.538" y="120.202" class="st7" width="71.475" height="11.745"/> <g> <rect x="156.437" y="100.127" class="st8" width="278.064" height="9.347"/> </g> </g> </g> </g>
</svg>