<svg width="256px" height="256px" viewBox="-2.72 -2.72 21.44 21.44" version="1.1" xmlns="http://www.w3.org/2000/svg" xmlns:xlink="http://www.w3.org/1999/xlink" fill="#001f3f" stroke="#001f3f" transform="matrix(1, 0, 0, 1, 0, 0)" stroke-width="0.608">
<g id="SVGRepo_bgCarrier" stroke-width="0" transform="translate(0,0), scale(1)">
<path transform="translate(-2.72, -2.72), scale(1.34)" fill="#c0c0c0" d="M9.166.33a2.25 2.25 0 00-2.332 0l-5.25 3.182A2.25 2.25 0 00.5 5.436v5.128a2.25 2.25 0 001.084 1.924l5.25 3.182a2.25 2.25 0 002.332 0l5.25-3.182a2.25 2.25 0 001.084-1.924V5.436a2.25 2.25 0 00-1.084-1.924L9.166.33z" strokewidth="0"/>
</g>
<g id="SVGRepo_tracerCarrier" stroke-linecap="round" stroke-linejoin="round" stroke="#001f3f" stroke-width="0.032"/>
<g id="SVGRepo_iconCarrier"> <path fill="#ff8000" d="M16 10v-4h-11v1h-2v-3h9v-4h-12v4h2v10h3v2h11v-4h-11v1h-2v-5h2v2z"/> </g>
</svg>