<svg height="256px" width="256px" version="1.1" id="Layer_1" xmlns="http://www.w3.org/2000/svg" xmlns:xlink="http://www.w3.org/1999/xlink" viewBox="-23.76 -23.76 344.52 344.52" xml:space="preserve" fill="#000000" stroke="#000000" stroke-width="0.00297">
<g id="SVGRepo_bgCarrier" stroke-width="0" transform="translate(0,0), scale(1)">
<path transform="translate(-23.76, -23.76), scale(21.5325)" fill="#c0c0c0" d="M9.166.33a2.25 2.25 0 00-2.332 0l-5.25 3.182A2.25 2.25 0 00.5 5.436v5.128a2.25 2.25 0 001.084 1.924l5.25 3.182a2.25 2.25 0 002.332 0l5.25-3.182a2.25 2.25 0 001.084-1.924V5.436a2.25 2.25 0 00-1.084-1.924L9.166.33z" strokewidth="0"/>
</g>
<g id="SVGRepo_tracerCarrier" stroke-linecap="round" stroke-linejoin="round"/>
<g id="SVGRepo_iconCarrier"> <g> <g> <g> <g> <circle style="fill:#ff0080;" cx="148.5" cy="148.5" r="148.5"/> </g> </g> </g> <path style="fill:#ff8000;" d="M296.994,148.006l-73.68-73.676L74.359,223.308l73.686,73.686c0.152,0,0.302,0.006,0.454,0.006 c82.014,0,148.5-66.486,148.5-148.5C297,148.335,296.994,148.171,296.994,148.006z"/> <g> <path style="fill:#00005b;" d="M93.334,66h110.333C218.762,66,231,78.238,231,93.334v110.333C231,218.762,218.762,231,203.667,231 H93.334C78.238,231,66,218.762,66,203.667V93.334C66,78.238,78.238,66,93.334,66z"/> </g> <polygon style="fill:#ECF0F1;" points="201,134.5 162.5,134.5 162.5,96 134.5,96 134.5,134.5 96,134.5 96,162.5 134.5,162.5 134.5,201 162.5,201 162.5,162.5 201,162.5 "/> </g> </g>
</svg>